{"title":"The Japanese Wife Next Door ( 2004) Uncut Hardcore Movie","uid":6455654,"size":235452854,"categoryP":"porn","categoryS":"movies","magnet":"?xt=urn:btih:a43a2823aaa9ab0c3bc6286fdf94fa8d52b37456&amp;dn=The+Japanese+Wife+Next+Door+%28+2004%29+Uncut+Hardcore+Movie&amp;tr=udp%3A%2F%2Ftracker.openbittorrent.com%3A80&amp;tr=udp%3A%2F%2Fopen.demonii.com%3A1337&amp;tr=udp%3A%2F%2Ftracker.coppersurfer.tk%3A6969&amp;tr=udp%3A%2F%2Fexodus.desync.com%3A6969","seeders":65,"leechers":17,"uploader":"Robin5555","files":2,"time":1307574825,"description":"------------------------------:TPB IS BENEDICTION TO ME :--------------------------\n\n\nScreen Link:---\n &lt;a href=&quot;\nhttp://www.shotpix.com/images/15669440358602498585.jpg&quot; rel=&quot;nofollow&quot; target=&quot;_NEW&quot;&gt;\nhttp://www.shotpix.com/images/15669440358602498585.jpg&lt;/a&gt;\n\n\nGeneral Info :---\n\n\nFormat                           : Matroska\nFile size                        : 224 MiB\nDuration                         : 1h 0mn\nOverall bit rate                 : 520 Kbps\nMovie name                       : P\nEncoded date                     : UTC 2011-06-08 17:55:16\nWriting application              : mkvmerge v4.6.0 ('Still Crazy After All These Years') built on Mar 10 2011 02:50:32\nWriting library                  : libebml v1.2.0 + libmatroska v1.1.0\n\nVideo\nID                               : 1\nFormat                           : AVC\nFormat/Info                      : Advanced Video Codec\nFormat profile                   : &lt;a class=&quot;__cf_email__&quot; href=&quot;/cdn-cgi/l/email-protection&quot; data-cfemail=&quot;7a32131d123a364e544a&quot;&gt;[email&amp;#160;protected]&lt;/a&gt;&lt;script cf-hash='f9e31' type=&quot;text/javascript&quot;&gt;\n/* &lt;![CDATA[ */!function(){try{var t=&quot;currentScript&quot;in document?document.currentScript:function(){for(var t=document.getElementsByTagName(&quot;script&quot;),e=t.length;e--;)if(t[e].getAttribute(&quot;cf-hash&quot;))return t[e]}();if(t&amp;&amp;t.previousSibling){var e,r,n,i,c=t.previousSibling,a=c.getAttribute(&quot;data-cfemail&quot;);if(a){for(e=&quot;&quot;,r=parseInt(a.substr(0,2),16),n=2;a.length-n;n+=2)i=parseInt(a.substr(n,2),16)^r,e+=String.fromCharCode(i);e=document.createTextNode(e),c.parentNode.replaceChild(e,c)}}}catch(u){}}();/* ]]&gt; */&lt;/script&gt;\nFormat settings, CABAC           : Yes\nFormat settings, ReFrames        : 3 frames\nCodec ID                         : V_MPEG4/ISO/AVC\nDuration                         : 1h 0mn\nBit rate mode                    : Variable\nBit rate                         : 391 Kbps\nMaximum bit rate                 : 25.0 Mbps\nWidth                            : 720 pixels\nHeight                           : 480 pixels\nDisplay aspect ratio             : 4:3\nOriginal display aspect ratio    : 4:3\nFrame rate                       : 29.970 fps\nStandard                         : NTSC\nColor space                      : YUV\nChroma subsampling               : 4:2:0\nBit depth                        : 8 bits\nScan type                        : Progressive\nBits/(Pixel*Frame)               : 0.038\nStream size                      : 165 MiB (73%)\n\nAudio\nID                               : 2\nFormat                           : MPEG Audio\nFormat version                   : Version 1\nFormat profile                   : Layer 3\nCodec ID                         : A_MPEG/L3\nCodec ID/Hint                    : MP3\nDuration                         : 1h 0mn\nBit rate mode                    : Constant\nBit rate                         : 128 Kbps\nChannel(s)                       : 2 channels\nSampling rate                    : 44.1 KHz\nCompression mode                 : Lossy\nStream size                      : 55.2 MiB (25%)\n\n\n\n------------------------------:TPB IS BENEDICTION TO ME :--------------------------\n\n\n","torrent":{"xt":"urn:btih:a43a2823aaa9ab0c3bc6286fdf94fa8d52b37456","amp;dn":"The+Japanese+Wife+Next+Door+%28+2004%29+Uncut+Hardcore+Movie","amp;tr":["udp%3A%2F%2Ftracker.openbittorrent.com%3A80","udp%3A%2F%2Fopen.demonii.com%3A1337","udp%3A%2F%2Ftracker.coppersurfer.tk%3A6969","udp%3A%2F%2Fexodus.desync.com%3A6969"],"infoHash":"a43a2823aaa9ab0c3bc6286fdf94fa8d52b37456","infoHashBuffer":{"type":"Buffer","data":[164,58,40,35,170,169,171,12,59,198,40,111,223,148,250,141,82,179,116,86]},"announce":[],"urlList":[]}}